# xmcd
#
# Track frame offsets:
#	150
#	16938
#	33816
#	47536
#	63950
#	82709
#	105226
#	124059
#	141985
#	160308
#	179607
#	200797
#	220373
#	236126
#	256937
#	270530
#	290292
#
# Disc length: 4028 seconds
#
# Revision: 1
# Processed by: cddbd v1.5.2PL0 Copyright (c) Steve Scherf et al.
# Submitted via: audiograbber 1.83.01
#
DISCID=eb0fba11
DTITLE=Various Artist - Chartbuster 5033-02
DYEAR=1900
DGENRE=Karaoke
TTITLE0=Travis Tritt - Can I Trust You With My Heart
TTITLE1=Alan Jackson - Here In The Real World
TTITLE2=Lorrie Morgan - Except For Monday
TTITLE3=Doug Stone - A Jukebox With A Country Song
TTITLE4=Vince Gill - Look At Us
TTITLE5=Travis Tritt - Lord Have Mercy On The Working Man
TTITLE6=John Michael Montgomery - I Love The Way You Love Me
TTITLE7=Wynonna - I Saw The Light
TTITLE8=Collin Raye - Love Me
TTITLE9=Tim McGraw - Don't Take The Girl
TTITLE10=Joe Diffie - John Deere Green
TTITLE11=Reba McEntire - The Night The Lights Went Out In Georgia
TTITLE12=John Michael Montgomery - Life's A Dance
TTITLE13=Alabama - Angels Among Us
TTITLE14=Sawyer Brown - Thank God For You
TTITLE15=Alison Krauss and Union Station - When You Say Nothing At All
TTITLE16=Toby Keith - You Ain't Much Fun
EXTD=
EXTT0=
EXTT1=
EXTT2=
EXTT3=
EXTT4=
EXTT5=
EXTT6=
EXTT7=
EXTT8=
EXTT9=
EXTT10=
EXTT11=
EXTT12=
EXTT13=
EXTT14=
EXTT15=
EXTT16=
PLAYORDER=
